<?xml version="1.0" encoding="UTF-8"?>
<svg version="1.1" xmlns="http://www.w3.org/2000/svg" width="788" height="557">
<path d="M0 0 C260.04 0 520.08 0 788 0 C788 183.81 788 367.62 788 557 C527.96 557 267.92 557 0 557 C0 373.19 0 189.38 0 0 Z " fill="#FBFCFA" transform="translate(0,0)"/>
<path d="M0 0 C2.98060043 2.3434589 5.74069504 4.85824794 8.48046875 7.47265625 C10.45218775 9.32229213 12.42657364 11.16904522 14.40161133 13.01513672 C15.72650058 14.2602984 17.04431114 15.51304338 18.35424805 16.77392578 C18.96179932 17.35384277 19.56935059 17.93375977 20.1953125 18.53125 C20.732771 19.05001709 21.27022949 19.56878418 21.82397461 20.10327148 C23.60574632 21.57622027 25.38181647 22.51825623 27.48046875 23.47265625 C28.03734375 22.90417969 28.59421875 22.33570313 29.16796875 21.75 C33.45628117 17.41098119 37.79448875 13.21319532 42.42578125 9.2421875 C45.52833224 6.57021868 48.55800076 3.81732249 51.59765625 1.07421875 C55.80627499 -2.50572666 60.18332086 -1.94420015 65.48046875 -1.52734375 C69.79653105 -0.69186333 73.99981412 0.47148566 78.23046875 1.66015625 C80.6178489 2.30316474 83.0058816 2.94375486 85.39453125 3.58203125 C86.58079102 3.90107422 87.76705078 4.22011719 88.98925781 4.54882812 C94.17550694 5.92118943 99.38090685 7.19269036 104.60546875 8.41015625 C105.47397461 8.62115967 106.34248047 8.83216309 107.23730469 9.04956055 C114.71223462 10.76943656 121.32412464 11.64518105 128.48046875 8.47265625 C134.034815 7.82975749 138.89811756 7.70973693 143.98046875 10.16015625 C147.93307678 13.81631868 150.39253859 16.15883624 151.05078125 21.578125 C152.37901275 27.87895497 156.5369516 31.33614345 161.10546875 35.59765625 C161.88792969 36.35691406 162.67039062 37.11617187 163.4765625 37.8984375 C167.07364785 41.3642859 170.74137519 44.72570991 174.5234375 47.98828125 C178.94797155 51.81898466 183.05535761 55.93726679 187.16796875 60.09765625 C187.90080078 60.835 188.63363281 61.57234375 189.38867188 62.33203125 C190.79849211 63.75075026 192.20731779 65.1704585 193.61499023 66.59130859 C195.17552026 68.16511364 196.74141216 69.73359966 198.30859375 71.30078125 C199.0253125 72.0175 199.74203125 72.73421875 200.48046875 73.47265625 C201.02832031 74.01148438 201.57617188 74.5503125 202.140625 75.10546875 C205.14032531 78.29735042 206.87026601 81.11514503 208.23046875 85.28515625 C210.28153777 91.53276399 213.40502641 96.96466324 216.64013672 102.65454102 C219.76670431 108.16001874 222.66919948 113.72203624 225.3840332 119.44482422 C226.87428455 122.44115926 228.57270622 125.20853106 230.40673828 128.0065918 C239.20702841 141.87162341 241.3903815 153.61481833 241.04492188 169.91674805 C240.97987882 173.56827506 241.04493401 177.20248597 241.12109375 180.85351562 C241.19027894 199.75659986 241.19027894 199.75659986 235.52313232 206.52099609 C233.4640148 208.59379205 231.31772065 210.46885269 229.01220703 212.26235962 C226.79115241 214.01731669 224.85299619 216.02199294 222.87109375 218.0390625 C220.80524646 220.04143403 218.73182482 222.03387496 216.640625 224.00976562 C211.43034029 229.08808252 207.53310701 234.57604907 203.62683105 240.69717407 C201.45275073 244.06438255 199.19503923 247.37571998 196.94921875 250.6953125 C195.96348814 252.15556282 194.97781167 253.6158497 193.9921875 255.07617188 C193.49638184 255.81005127 193.00057617 256.54393066 192.48974609 257.30004883 C191.4827307 258.79135034 190.47654686 260.28321371 189.47119141 261.77563477 C186.58896085 266.05401893 183.69404748 270.32315399 180.77636719 274.57745361 C179.94569326 275.79228293 179.11913315 277.00994155 178.29785156 278.23114014 C177.25684998 279.77731002 176.19737244 281.31099452 175.13671875 282.84375 C174.56759766 283.67704834 173.99847656 284.51034668 173.41210938 285.36889648 C170.15006747 288.92160314 166.16684857 290.73728347 161.37890625 291.12890625 C160.60901367 291.19335938 159.83912109 291.2578125 159.04589844 291.32421875 C154.06766954 291.61226245 149.08926203 291.81014125 144.10546875 291.97265625 C138.00421305 292.17306246 131.93549751 292.39265672 125.859375 293 C120.49110181 293.52323675 115.18291241 293.58756408 109.79296875 293.53515625 C108.88869141 293.53064453 107.98441406 293.52613281 107.05273438 293.52148438 C104.86194937 293.50989292 102.67119931 293.49196729 100.48046875 293.47265625 C100.8334338 297.60530467 101.24026672 301.72819885 101.69506836 305.85058594 C101.84201257 307.24953344 101.97484211 308.65004585 102.0925293 310.05175781 C102.94988117 320.2267977 102.94988117 320.2267977 109.015625 328.12890625 C110.19910522 328.94584961 110.19910522 328.94584961 111.40649414 329.77929688 C114.40055264 332.2238866 115.23775763 334.9006784 115.81640625 338.6484375 C115.92200252 344.42455374 114.81943457 348.7073361 111.48046875 353.47265625 C106.00227478 358.67694052 101.59872704 359.93740176 94.171875 359.7890625 C89.13274375 359.19665375 86.50766778 356.61398851 83.23046875 352.97265625 C80.34496725 348.85051125 79.31634379 346.21962753 79.23046875 341.16015625 C78.78873535 335.24408391 76.87707951 332.32370217 72.48046875 328.47265625 C71.67609375 327.83328125 70.87171875 327.19390625 70.04296875 326.53515625 C67.86177283 324.77955953 66.37363175 323.22575065 64.60546875 321.09765625 C59.85717225 315.51945837 54.38696441 310.69249272 49.00390625 305.7421875 C44.89970216 301.95052801 41.00749021 298.34032243 37.91796875 293.66015625 C35.84369736 291.16245478 34.98658723 290.52833642 31.7109375 290.16796875 C29.6240772 290.2467182 27.53793782 290.34732967 25.453125 290.46875 C21.08350007 290.47449195 17.86858227 289.19771959 14.48046875 286.47265625 C13.89442871 285.4662207 13.30838867 284.45978516 12.70458984 283.42285156 C10.77849909 281.10837124 9.74571532 280.52535688 6.75273132 279.93069458 C3.18243612 279.74681571 -0.34728958 279.74757321 -3.921875 279.80859375 C-5.92417064 279.80214637 -7.92646647 279.79567795 -9.92875767 279.7879734 C-12.72831571 279.78415485 -15.52739964 279.80686218 -18.32684326 279.83026123 C-23.22138733 279.87022986 -28.11569478 279.89170881 -33.01039124 279.87808228 C-35.61365363 279.87350426 -38.21703812 279.88822722 -40.8200531 279.92440796 C-48.77998891 279.92203958 -52.47766317 279.37647523 -58.21362305 273.83642578 C-61.79160227 269.47549428 -65.11598942 264.98150578 -68.33203125 260.34765625 C-68.84540039 259.61281006 -69.35876953 258.87796387 -69.88769531 258.12084961 C-70.93072473 256.62671482 -71.9722468 255.13152656 -73.01220703 253.63525391 C-74.43133541 251.59919314 -75.86180958 249.57172173 -77.296875 247.546875 C-78.12130022 246.37644749 -78.94553123 245.20588315 -79.76953125 244.03515625 C-80.86007812 242.49021484 -80.86007812 242.49021484 -81.97265625 240.9140625 C-83.51953125 238.47265625 -83.51953125 238.47265625 -83.51953125 236.47265625 C-84.76863281 236.50230469 -86.01773438 236.53195312 -87.3046875 236.5625 C-92.93312359 236.56139747 -98.39400186 235.83412173 -103.95703125 235.03515625 C-105.44493164 234.8330957 -105.44493164 234.8330957 -106.96289062 234.62695312 C-114.24660374 233.60912 -114.24660374 233.60912 -116.51953125 232.47265625 C-117.86262649 232.30070412 -119.21199055 232.17608711 -120.5625 232.078125 C-148.37775657 229.83398923 -148.37775657 229.83398923 -153.42700195 224.43188477 C-156.03865404 220.73851935 -157.98736698 216.88974182 -159.96875 212.83203125 C-160.38566605 211.99158264 -160.80258209 211.15113403 -161.23213196 210.28521729 C-162.56284347 207.60049335 -163.8853896 204.91185506 -165.20703125 202.22265625 C-166.93687346 198.71584419 -168.67048256 195.21091394 -170.40625 191.70703125 C-170.83163055 190.84686401 -171.25701111 189.98669678 -171.69528198 189.10046387 C-174.87561025 182.69667961 -178.17332106 176.36262752 -181.58049011 170.07659912 C-188.64643777 156.95479143 -188.64643777 156.95479143 -187.51953125 149.47265625 C-186.26171875 146.140625 -186.26171875 146.140625 -184.39453125 142.66015625 C-184.0505127 142.00635986 -183.70649414 141.35256348 -183.35205078 140.67895508 C-182.55464781 139.16422947 -181.75058446 137.65299928 -180.94140625 136.14453125 C-179.294073 133.04899295 -177.68670909 129.93426714 -176.08203125 126.81640625 C-173.6898767 122.17120556 -171.29487385 117.52756121 -168.88671875 112.890625 C-168.32871582 111.81304932 -167.77071289 110.73547363 -167.19580078 109.62524414 C-166.09239983 107.55005969 -164.95331411 105.49339727 -163.77685547 103.45874023 C-160.73949386 98.19982984 -158.82267791 94.38984045 -158.89453125 88.16015625 C-158.64750489 80.86092584 -156.97696229 77.82086814 -151.70703125 72.78515625 C-148.51953125 70.47265625 -148.51953125 70.47265625 -145.25390625 69.25 C-140.75119332 67.37885814 -137.87293192 64.23196316 -134.58203125 60.72265625 C-131.15192476 57.13328094 -127.75002006 53.615469 -123.95703125 50.40625 C-120.06211762 47.05648341 -116.46223311 43.46133704 -112.859375 39.8046875 C-112.26121475 39.19863678 -111.6630545 38.59258606 -111.04676819 37.96817017 C-108.54972589 35.43469538 -106.05563163 32.89847949 -103.57104492 30.3527832 C-101.73651036 28.47570179 -99.89246901 26.6083876 -98.046875 24.7421875 C-97.22001442 23.88739555 -97.22001442 23.88739555 -96.37644958 23.01533508 C-90.64610994 17.24794361 -84.94894812 14.15841079 -76.86328125 12.62109375 C-76.15731812 12.47612457 -75.45135498 12.3311554 -74.72399902 12.18179321 C-72.49133238 11.72550408 -70.25580026 11.28591273 -68.01953125 10.84765625 C-65.78406376 10.39891867 -63.54934948 9.94667824 -61.31506348 9.49209595 C-59.93234903 9.21190395 -58.54884446 8.93557115 -57.16442871 8.66390991 C-52.87665513 7.80924044 -48.71427227 6.69958156 -44.51953125 5.47265625 C-42.23289272 4.9898625 -39.94079713 4.53236137 -37.64453125 4.09765625 C-32.68963829 3.15108916 -27.79730772 2.0674619 -22.90625 0.83227539 C-5.6917274 -3.45033397 -5.6917274 -3.45033397 0 0 Z " fill="#2C2724" transform="translate(364.51953125,167.52734375)"/>
<path d="M0 0 C4.32989118 0.98447114 7.68453896 2.54458381 11.546875 4.67578125 C12.26625244 5.06378906 12.98562988 5.45179688 13.72680664 5.8515625 C22.08667147 10.44065952 30.10274588 15.596275 38.09545898 20.79101562 C39.81236465 21.91208279 39.81236465 21.91208279 41.796875 22.86328125 C41.9 24.05953125 42.003125 25.25578125 42.109375 26.48828125 C42.59434414 31.22736565 44.4350839 34.50997952 47.796875 37.86328125 C50.90365284 40.3244232 52.28803629 40.89221188 56.30078125 40.6640625 C56.94982422 40.58212646 57.59886719 40.50019043 58.26757812 40.41577148 C69.94397514 39.0761475 77.00492896 44.79817155 85.921875 51.703125 C90.78940793 55.60873555 90.78940793 55.60873555 91.421875 60.42578125 C92.52904948 66.39937382 95.50387918 69.74243564 99.796875 73.86328125 C100.796875 74.86328125 100.796875 74.86328125 100.91712952 76.72987366 C100.91490891 77.5448381 100.91268829 78.35980255 100.91040039 79.19946289 C100.91032486 80.12034195 100.91024933 81.04122101 100.91017151 81.99000549 C100.90501022 82.99103806 100.89984894 83.99207062 100.89453125 85.0234375 C100.89240883 86.55284218 100.89240883 86.55284218 100.89024353 88.11314392 C100.88462597 91.38405232 100.8720705 94.65489338 100.859375 97.92578125 C100.85436226 100.13736881 100.84979896 102.34895743 100.84570312 104.56054688 C100.83465084 109.99481482 100.81789563 115.42904322 100.796875 120.86328125 C97.92217007 122.30063371 95.97792912 122.24500774 92.796875 121.86328125 C90.921875 119.80078125 90.921875 119.80078125 88.796875 116.86328125 C87.59242078 115.75253743 86.36013207 114.67161416 85.109375 113.61328125 C80.44838611 109.61940188 75.85543201 105.47613193 71.796875 100.86328125 C71.796875 100.20328125 71.796875 99.54328125 71.796875 98.86328125 C70.311875 98.36828125 70.311875 98.36828125 68.796875 97.86328125 C68.796875 97.20328125 68.796875 96.54328125 68.796875 95.86328125 C68.136875 95.86328125 67.476875 95.86328125 66.796875 95.86328125 C65.38671875 94.4296875 65.38671875 94.4296875 63.734375 92.42578125 C58.94871677 86.79736559 53.9705074 80.97903618 47.796875 76.86328125 C47.796875 76.20328125 47.796875 75.54328125 47.796875 74.86328125 C46.311875 74.36828125 46.311875 74.36828125 44.796875 73.86328125 C44.796875 73.20328125 44.796875 72.54328125 44.796875 71.86328125 C43.311875 71.36828125 43.311875 71.36828125 41.796875 70.86328125 C40.359375 69.40234375 40.359375 69.40234375 38.796875 67.48828125 C35.72276009 63.87129073 32.51004467 60.42381725 29.171875 57.05078125 C28.27210938 56.13683594 27.37234375 55.22289062 26.4453125 54.28125 C22.07565709 50.29184484 19.09641521 48.44459909 13.109375 48.55078125 C12.15675781 48.55464844 11.20414062 48.55851562 10.22265625 48.5625 C7.61712331 48.63321786 7.61712331 48.63321786 5.796875 50.86328125 C5.14919707 53.43389436 5.14919707 53.43389436 4.796875 55.86328125 C-3.16528167 54.51611366 -10.98769349 52.79000529 -18.828125 50.86328125 C-20.9659707 50.34172952 -23.10398874 49.82088365 -25.2421875 49.30078125 C-26.2518457 49.05457031 -27.26150391 48.80835938 -28.30175781 48.5546875 C-30.9790538 47.91667822 -33.66138566 47.31912711 -36.3515625 46.73828125 C-40.203125 45.86328125 -40.203125 45.86328125 -42.203125 44.86328125 C-43.32128906 42.33886719 -43.32128906 42.33886719 -43.203125 38.86328125 C-40.9765671 35.60055595 -38.15515696 32.98007195 -35.3125 30.25390625 C-34.49694641 29.44588562 -33.68139282 28.63786499 -32.84112549 27.80535889 C-30.22772691 25.22453653 -27.59076952 22.66929468 -24.953125 20.11328125 C-23.18986876 18.3765596 -21.42813017 16.63829566 -19.66796875 14.8984375 C-16.43952077 11.72032939 -13.2082936 8.54537586 -9.95605469 5.39160156 C-9.30239929 4.75683899 -8.6487439 4.12207642 -7.97528076 3.46807861 C-5.16775238 0.92568689 -3.87171445 -0.1652561 0 0 Z " fill="#F8FAF6" transform="translate(282.203125,204.13671875)"/>
<path d="M0 0 C3.84594264 1.56686552 6.14992849 4.02768232 9 7 C10.8118765 8.74672872 12.6284334 10.48861075 14.44873047 12.2265625 C19.7271413 17.27638295 24.96996074 22.36157614 30.1934948 27.46812439 C33.34648876 30.54797818 36.51126935 33.61337452 39.70605469 36.64990234 C42.80981129 39.60094637 45.87753348 42.5854541 48.92392349 45.59564209 C50.08475196 46.73074768 51.25777208 47.85353136 52.44317245 48.96295166 C61.69888466 57.64786058 61.69888466 57.64786058 62.47125244 63.68115234 C62.23555321 66.90904819 61.80525704 69.86934361 61 73 C26.92056936 88.21455552 26.92056936 88.21455552 14.74853516 92.77294922 C9.41599401 94.78465793 4.28059782 97.11827496 -0.859375 99.5769043 C-5.15927757 101.63100163 -9.49818202 103.47685358 -13.94921875 105.17578125 C-16.00399423 105.94873718 -16.00399423 105.94873718 -17.82519531 107.03466797 C-25.8981388 110.61801087 -37.17014295 107.17603687 -45.4375 105.6875 C-48.08790362 105.2215769 -50.73924219 104.76109487 -53.390625 104.30078125 C-55.32518555 103.96361084 -55.32518555 103.96361084 -57.29882812 103.61962891 C-60.62692177 103.06245861 -63.95380052 102.56267378 -67.296875 102.10546875 C-68.68048218 101.91561401 -68.68048218 101.91561401 -70.09204102 101.72192383 C-71.77610651 101.49682204 -73.46148196 101.28123753 -75.14819336 101.0769043 C-79.17255987 100.53133907 -81.41280448 100.1567998 -84 97 C-85.11572266 95.00146484 -85.11572266 95.00146484 -86.1640625 92.7109375 C-86.75791748 91.43343628 -86.75791748 91.43343628 -87.36376953 90.13012695 C-87.77997559 89.22093506 -88.19618164 88.31174316 -88.625 87.375 C-92.28939971 79.50001819 -96.13217993 71.77275867 -100.30712891 64.15576172 C-103 59.19906981 -103 59.19906981 -103 57 C-95.59491423 58.00584303 -88.30394582 59.74391457 -81.0625 61.5625 C-80.13864502 61.76504395 -79.21479004 61.96758789 -78.26293945 62.17626953 C-71.73585981 63.89697441 -71.73585981 63.89697441 -69.58935547 67.11450195 C-68.55859375 69.5234375 -68.55859375 69.5234375 -67.81420898 71.85302734 C-66.65280482 74.91551257 -64.93348612 76.48309482 -62.1875 78.1875 C-56.9616219 80.12854044 -50.96247029 80.10195694 -45.7421875 78.16015625 C-43.16672991 76.7323398 -41.07908048 75.07908048 -39 73 C-34.24715389 72.71411452 -29.6640365 73.044983 -25 74 C-22.625 76.75 -22.625 76.75 -21 80 C-17.46708097 83.11348572 -13.76135584 85.29069032 -9 85.5625 C-3.61362757 85.1497917 0.87276829 83.23539603 4.61328125 79.3046875 C7.83117369 74.82683154 8.72033009 70.81063961 8.42578125 65.33203125 C7.78391633 61.81649585 6.33576447 59.6601762 4 57 C3.30295959 56.56141159 2.60591919 56.12282318 1.88775635 55.67094421 C0 54 0 54 -0.48101807 51.58918762 C-0.4676944 50.16022408 -0.4676944 50.16022408 -0.45410156 48.70239258 C-0.45379944 47.62149857 -0.45349731 46.54060455 -0.45318604 45.42695618 C-0.43254089 44.26125595 -0.41189575 43.09555573 -0.390625 41.89453125 C-0.38496521 40.70018967 -0.37930542 39.50584808 -0.37347412 38.27531433 C-0.35105175 34.45397153 -0.30084195 30.63356025 -0.25 26.8125 C-0.2299427 24.2246229 -0.2116906 21.63673113 -0.1953125 19.04882812 C-0.15116763 12.69889996 -0.08419628 6.34951652 0 0 Z " fill="#F8FAF5" transform="translate(305,280)"/>
<path d="M0 0 C-0.82700697 4.73083557 -2.29295632 9.15979473 -3.85839844 13.69262695 C-5.10814429 17.31593128 -6.28569416 20.93782305 -7.34765625 24.62109375 C-10.77822179 36.05509959 -10.77822179 36.05509959 -14.171875 38.6796875 C-16.5 39.5625 -16.5 39.5625 -18.80859375 40.21875 C-22.28520534 41.45818372 -23.95231297 43.64721945 -25.9609375 46.66015625 C-27.93523999 51.10604795 -27.92710925 55.27517657 -27 60 C-25.08121018 64.57499691 -22.39125226 68.52992061 -18 71 C-17.20770996 71.16709473 -16.41541992 71.33418945 -15.59912109 71.50634766 C-11.46053802 73.88469175 -10.83859879 77.63295968 -9.4140625 82.0234375 C-9.10802094 82.92115875 -8.80197937 83.81888 -8.48666382 84.74380493 C-7.84404369 86.64219206 -7.2108512 88.54379286 -6.58642578 90.44824219 C-5.62851729 93.36429271 -4.63917161 96.2681748 -3.64453125 99.171875 C-3.02415163 101.01759497 -2.40559988 102.86393053 -1.7890625 104.7109375 C-1.49335358 105.5808432 -1.19764465 106.4507489 -0.89297485 107.34701538 C-0.49663345 108.56815536 -0.49663345 108.56815536 -0.09228516 109.81396484 C0.14356293 110.52741058 0.37941101 111.24085632 0.62240601 111.97592163 C1.05478811 114.29368961 0.72621001 115.7784705 0 118 C-8.28023983 114.97672548 -16.49293956 111.93931052 -24.47265625 108.17578125 C-27.61973189 106.71168578 -30.80525249 105.35688786 -34 104 C-33.94199219 102.83984375 -33.88398437 101.6796875 -33.82421875 100.484375 C-33.43634858 89.49550604 -33.89586583 80.4806428 -40.984375 71.48046875 C-48.88733413 63.0310284 -58.68673591 58.39580617 -69.375 54.375 C-70.38578613 53.98530029 -71.39657227 53.59560059 -72.43798828 53.1940918 C-77.54391102 51.24163366 -82.65158913 49.4212567 -87.875 47.8125 C-95.13156324 45.48532229 -101.88263744 41.5877801 -106 35 C-108.88886207 29.07783276 -109.31890503 21.13656578 -107.3125 14.84375 C-104.17676273 8.88584919 -98.88712467 4.65134781 -92.54296875 2.50390625 C-84.63847058 0.93757712 -75.92686433 0.48019474 -69 5 C-68.59802999 7.32249342 -68.27313343 9.65885633 -68 12 C-66.10295482 15.82544648 -63.7666883 18.44727123 -60.3125 20.9375 C-54.61407021 22.76529823 -48.78407002 22.94225754 -43.125 20.8125 C-39.00764284 18.42443285 -36.63884975 16.04498692 -35.20581055 11.45776367 C-34 9 -34 9 -31.77270508 7.8215332 C-30.86415771 7.56718506 -29.95561035 7.31283691 -29.01953125 7.05078125 C-27.5200293 6.61475586 -27.5200293 6.61475586 -25.99023438 6.16992188 C-24.94158203 5.88697266 -23.89292969 5.60402344 -22.8125 5.3125 C-21.78318359 5.01794922 -20.75386719 4.72339844 -19.69335938 4.41992188 C-17.69382076 3.84990606 -15.69142116 3.2898125 -13.68603516 2.74072266 C-11.44928349 2.12389803 -9.23134521 1.46768307 -7.01171875 0.79296875 C-4 0 -4 0 0 0 Z " fill="#F8FAF5" transform="translate(549,267)"/>
<path d="M0 0 C1.22396484 0.69802734 1.22396484 0.69802734 2.47265625 1.41015625 C4.00950073 2.09875732 4.00950073 2.09875732 5.57739258 2.80126953 C8.83390943 5.73567707 8.92948018 6.22784899 9.24902344 10.37475586 C9.28863614 12.43696815 9.29322173 14.50004335 9.26953125 16.5625 C9.27527161 17.65478409 9.28101196 18.74706818 9.28692627 19.87245178 C9.29100764 22.18150913 9.27994664 24.49063562 9.25488281 26.79956055 C9.22279715 30.33214289 9.25455394 33.86013927 9.29296875 37.39257812 C9.28900327 39.63672885 9.28131463 41.88087671 9.26953125 44.125 C9.28774933 45.70800148 9.28774933 45.70800148 9.30633545 47.32298279 C9.16859771 54.51647919 9.16859771 54.51647919 7.11877441 57.14871216 C5.48535156 58.49047852 5.48535156 58.49047852 2.47265625 60.41015625 C1.97765625 61.40015625 1.97765625 61.40015625 1.47265625 62.41015625 C-5.76737686 62.78313967 -13.00530272 63.06622435 -20.25304127 63.239151 C-23.6203356 63.3222256 -26.98100544 63.43447706 -30.34448242 63.6171875 C-52.07917069 64.71217457 -52.07917069 64.71217457 -57.79260254 60.89785767 C-61.38194775 57.25022081 -63.59306196 53.11635423 -65.59222412 48.44514465 C-67.07579807 45.21662107 -69.09064953 42.48637859 -71.15234375 39.59765625 C-73.04892656 36.7914878 -74.45570316 34.62507802 -75.52734375 31.41015625 C-60.06138175 24.49553998 -44.5732184 17.63767085 -29.00756836 10.95019531 C-23.72829541 8.67997328 -18.45790327 6.40402535 -13.25390625 3.96484375 C-12.50971436 3.62042236 -11.76552246 3.27600098 -10.9987793 2.92114258 C-9.14644745 2.05734361 -7.3031537 1.17422993 -5.4609375 0.2890625 C-2.52734375 -0.58984375 -2.52734375 -0.58984375 0 0 Z " fill="#FAFCF7" transform="translate(373.52734375,367.58984375)"/>
<path d="M0 0 C7.67921041 1.62426353 14.79182655 4.53130715 22.0625 7.4375 C23.31558227 7.93337994 24.56883646 8.42882568 25.82226562 8.92382812 C31.58206832 11.20740961 37.32504917 13.51246583 43 16 C41.44567351 20.52412343 38.97356671 24.25486322 36.28125 28.1640625 C35.8227063 28.83795013 35.3641626 29.51183777 34.89172363 30.20614624 C33.43227488 32.34884624 31.96628255 34.48697224 30.5 36.625 C29.51388168 38.07001148 28.52819992 39.51532099 27.54296875 40.9609375 C25.73904386 43.60685005 23.93247711 46.25091605 22.12304688 48.89306641 C20.73731998 50.92098275 19.36242812 52.95635782 18 55 C16.08958435 55.51261902 16.08958435 55.51261902 13.72827148 55.70776367 C12.84231796 55.78762009 11.95636444 55.8674765 11.04356384 55.94975281 C10.07914871 56.02176407 9.11473358 56.09377533 8.12109375 56.16796875 C7.12102798 56.25250809 6.12096222 56.33704742 5.09059143 56.42414856 C2.96173442 56.60118386 0.83229825 56.77136522 -1.29760742 56.93530273 C-4.49875061 57.18257567 -7.69744552 57.45159629 -10.89648438 57.72460938 C-22.62244854 58.69385883 -34.2350044 59.26215861 -46 59 C-47.54032425 48.6190171 -49.0442945 38.23066866 -50.3125 27.8125 C-50.41288574 27.05340332 -50.51327148 26.29430664 -50.61669922 25.51220703 C-50.8297236 23.68272832 -50.92587785 21.84034716 -51 20 C-48.09668087 17.09668087 -45.01981038 17.66457495 -41.125 17.5625 C-27.06802814 16.95409484 -13.66944706 13.6556082 -3 4 C-1.96741102 2.69174247 -0.95813617 1.36372756 0 0 Z " fill="#F9FBF7" transform="translate(508,386)"/>
<path d="M0 0 C0 15.18 0 30.36 0 46 C-12 44 -12 44 -17 43 C-30.26345235 42.07422883 -43.55825976 44.35342772 -54.22265625 52.75 C-61.60080962 59.59030668 -66.36123752 68.79672464 -67.25390625 78.86328125 C-67.5290642 86.27479391 -66.32942121 92.27103785 -63.77734375 99.22265625 C-62.94185317 102.20775073 -62.90342964 103.17257525 -64 106 C-66.62120881 108.60971732 -69.68686473 110.65777601 -72.6875 112.8125 C-73.49123047 113.42287109 -74.29496094 114.03324219 -75.12304688 114.66210938 C-81.09986738 118.99689252 -81.09986738 118.99689252 -85.39453125 119.01171875 C-88 118 -88 118 -91 116 C-91.39440918 114.04006958 -91.39440918 114.04006958 -91.41992188 111.61376953 C-91.43583374 110.70587677 -91.45174561 109.79798401 -91.46813965 108.86257935 C-91.46834106 107.87925629 -91.46854248 106.89593323 -91.46875 105.8828125 C-91.47636353 104.87411102 -91.48397705 103.86540955 -91.49182129 102.82614136 C-91.50264108 100.68929523 -91.5054678 98.55239614 -91.50097656 96.41552734 C-91.50000582 93.14460888 -91.54157396 89.87604721 -91.5859375 86.60546875 C-91.59114542 84.5312549 -91.59383268 82.45703288 -91.59375 80.3828125 C-91.61014526 79.4035379 -91.62654053 78.42426331 -91.64343262 77.41531372 C-91.57391568 70.58572609 -91.57391568 70.58572609 -88.60351562 67.55419922 C-87.74435547 67.04131348 -86.88519531 66.52842773 -86 66 C-83.16314594 61.90232192 -82.06506274 60.09739149 -81.765625 55.046875 C-81.37440136 51.60822511 -81.15643001 51.15056389 -78.5 48.59375 C-77.34953089 47.8694437 -76.18092803 47.1735041 -75 46.5 C-73.62100712 45.64727549 -72.24210773 44.7943998 -70.86328125 43.94140625 C-70.09193848 43.47750488 -69.3205957 43.01360352 -68.52587891 42.53564453 C-63.68865706 39.59478571 -58.9491994 36.49851303 -54.1875 33.4375 C-52.03139908 32.06096437 -49.87514594 30.68466716 -47.71875 29.30859375 C-40.84844647 24.91284937 -34.01260956 20.46551637 -27.1875 16 C-26.14553467 15.3186499 -25.10356934 14.6372998 -24.0300293 13.93530273 C-23.02367432 13.27602783 -22.01731934 12.61675293 -20.98046875 11.9375 C-20.00126465 11.29683594 -19.02206055 10.65617188 -18.01318359 9.99609375 C-15.88779729 8.58812434 -13.77824486 7.16728674 -11.67822266 5.72265625 C-10.06826416 4.62244141 -10.06826416 4.62244141 -8.42578125 3.5 C-7.45680908 2.8296875 -6.48783691 2.159375 -5.48950195 1.46875 C-3 0 -3 0 0 0 Z " fill="#F7F9F4" transform="translate(490,209)"/>
<path d="M0 0 C0.87785156 0.44601562 1.75570313 0.89203125 2.66015625 1.3515625 C3.69269531 1.80273438 4.72523438 2.25390625 5.7890625 2.71875 C7.48869141 3.46511719 7.48869141 3.46511719 9.22265625 4.2265625 C13.53982354 6.1011442 17.85639414 7.80960093 22.34765625 9.2265625 C27.80932263 11.00049996 33.14744388 13.02008614 38.47265625 15.1640625 C39.27340576 15.47134277 40.07415527 15.77862305 40.89916992 16.09521484 C47.85664193 18.9559197 53.6849612 23.22592672 56.66015625 30.3515625 C57.48705555 37.90681086 57.99318957 45.51114692 53.140625 51.77734375 C47.55141471 57.7204882 42.21807308 61.12563128 34.03515625 61.53125 C30.57110052 61.53823398 27.12151049 61.48282172 23.66015625 61.3515625 C23.16515625 60.2996875 22.67015625 59.2478125 22.16015625 58.1640625 C19.53563439 53.72672658 16.6370398 50.93751932 11.66015625 49.3515625 C9.32374907 49.43470866 6.98936353 49.58780328 4.66015625 49.7890625 C-5.04204339 50.2066747 -10.58441507 44.94433232 -17.58911133 38.77490234 C-19.51545617 37.12221544 -19.51545617 37.12221544 -22.76171875 35.46875 C-25.33984375 33.3515625 -25.33984375 33.3515625 -26.1640625 29.59375 C-26.17073571 28.13732295 -26.1225606 26.67988905 -26.02734375 25.2265625 C-25.98029297 24.46682129 -25.93324219 23.70708008 -25.88476562 22.92431641 C-25.26902989 17.94216498 -23.95583155 15.12584307 -20.06176758 11.94091797 C-17.76725499 10.32275469 -15.41733426 8.83338368 -13.00390625 7.39941406 C-9.84048467 5.40742383 -7.1357972 2.80424015 -4.33984375 0.3359375 C-2.33984375 -0.6484375 -2.33984375 -0.6484375 0 0 Z " fill="#F9FBF6" transform="translate(440.33984375,324.6484375)"/>
<path d="M0 0 C13.38663066 1.80064733 26.67242571 4.41547854 39.67578125 8.0703125 C42.18153955 8.77110037 44.68346347 9.43113385 47.20776367 10.05810547 C48.45920166 10.36893066 49.71063965 10.67975586 51 11 C51.13931359 18.45838419 51.24577764 25.91648574 51.31087303 33.37590981 C51.34212401 36.84010554 51.38447657 40.30340813 51.45263672 43.76708984 C51.53058757 47.75347014 51.55946987 51.73949486 51.5859375 55.7265625 C51.61690521 56.96427399 51.64787292 58.20198547 51.67977905 59.47720337 C51.68352862 69.08101011 51.68352862 69.08101011 48.15527344 72.79125977 C43.6449226 75.94857515 40.97295658 75.59893688 35.69921875 74.87890625 C33 74 33 74 30.6875 70.75 C30.43226563 70.12222656 30.17703125 69.49445313 29.9140625 68.84765625 C28.26938901 65.52316668 25.17138801 63.76041705 22 62 C20.7771228 61.66524658 20.7771228 61.66524658 19.52954102 61.32373047 C17 60 17 60 15.65380859 57.25366211 C15.32203613 56.10647705 14.99026367 54.95929199 14.6484375 53.77734375 C14.08382812 51.88532227 14.08382812 51.88532227 13.5078125 49.95507812 C13.12957646 48.61606374 12.75197648 47.27686953 12.375 45.9375 C11.99146729 44.62509901 11.60606841 43.31324186 11.21875 42.00195312 C10.47157472 39.46745065 9.73254285 36.93108607 8.99804688 34.39282227 C7.30449731 28.63566515 5.34680946 22.98484754 3.359375 17.32421875 C2.82291667 15.77864583 2.28645833 14.23307292 1.75 12.6875 C1.46898437 11.90310547 1.18796875 11.11871094 0.8984375 10.31054688 C0.50785156 9.17262695 0.50785156 9.17262695 0.109375 8.01171875 C-0.12813477 7.33584717 -0.36564453 6.65997559 -0.61035156 5.96362305 C-1.06534468 3.67069719 -0.71677217 2.20226098 0 0 Z " fill="#F9FBF6" transform="translate(236,265)"/>
<path d="M0 0 C1.13824219 0.26772217 2.27648437 0.53544434 3.44921875 0.8112793 C5.73226226 1.34866517 8.01482571 1.88809516 10.296875 2.4296875 C13.16464335 3.10815952 16.03449916 3.77612708 18.90625 4.4375 C20.43750913 4.79162719 21.96875986 5.14579071 23.5 5.5 C24.19287109 5.65895752 24.88574219 5.81791504 25.59960938 5.98168945 C30.27220514 7.07360257 30.27220514 7.07360257 32.5 8.1875 C31.08461252 12.43366243 27.98325772 13.62725402 24.3125 15.8125 C22.83026085 16.71668065 21.34849737 17.62164148 19.8671875 18.52734375 C19.12436523 18.97835449 18.38154297 19.42936523 17.61621094 19.89404297 C14.69583875 21.67901434 11.81469036 23.5213578 8.9375 25.375 C8.38835937 25.72860596 7.83921875 26.08221191 7.2734375 26.4465332 C3.56655167 28.83868422 -0.12789962 31.24964268 -3.8203125 33.6640625 C-15.41167415 41.24306733 -27.04102157 48.74870123 -38.78027344 56.09692383 C-40.36838825 57.10403752 -41.93530588 58.14437059 -43.5 59.1875 C-44.82 59.1875 -46.14 59.1875 -47.5 59.1875 C-47.69852452 53.61926907 -47.84327806 48.05311832 -47.93945312 42.48217773 C-47.97955987 40.58955995 -48.03406288 38.69718813 -48.10351562 36.80541992 C-48.66478597 21.11873923 -48.66478597 21.11873923 -45.91870117 16.56567383 C-43.87629557 14.78780184 -41.85524831 13.51262349 -39.5 12.1875 C-38.32077948 11.16453662 -37.16916466 10.1086748 -36.05078125 9.01953125 C-35.24350586 8.26833008 -35.24350586 8.26833008 -34.41992188 7.50195312 C-33.33620489 6.48934272 -32.25287988 5.47631269 -31.16992188 4.46289062 C-30.11054609 3.47763281 -29.04323673 2.50082025 -27.96728516 1.53369141 C-26.65230035 0.32723114 -25.40475359 -0.95177642 -24.16796875 -2.23828125 C-17.46941605 -6.19072157 -7.07383194 -1.68897089 0 0 Z " fill="#F7F9F5" transform="translate(446.5,186.8125)"/>
<path d="M0 0 C3.97319734 1.32439911 4.85165453 3.69883721 6.75 7.1875 C7.09853027 7.81245361 7.44706055 8.43740723 7.80615234 9.08129883 C11.0647115 14.98291153 14.11884728 20.99217981 16.98022461 27.09667969 C17.98668221 29.08621767 17.98668221 29.08621767 19.52172852 31.05175781 C25.62664307 40.0004417 24.8742146 49.78775139 24.72729492 60.20849609 C24.68732352 63.38904231 24.70672036 66.56547057 24.73242188 69.74609375 C24.72486911 71.77605779 24.71392205 73.80601266 24.69921875 75.8359375 C24.7096949 77.25475723 24.7096949 77.25475723 24.72038269 78.70223999 C24.6239029 83.19925737 24.55910669 85.30305309 21.67382812 88.8996582 C20.3502832 89.93932739 20.3502832 89.93932739 19 91 C17.83100761 92.24829393 16.67007888 93.50421662 15.51953125 94.76953125 C14.91302734 95.43017578 14.30652344 96.09082031 13.68164062 96.77148438 C12.42046991 98.14862481 11.16272958 99.52891354 9.90820312 100.91210938 C9.30556641 101.56630859 8.70292969 102.22050781 8.08203125 102.89453125 C7.53780518 103.49112549 6.9935791 104.08771973 6.43286133 104.70239258 C5 106 5 106 3 106 C2.7014209 105.09918701 2.4028418 104.19837402 2.09521484 103.27026367 C0.07510799 97.19075249 -1.95202924 91.11472401 -4.04071045 85.05838013 C-4.93449494 82.4644842 -5.81987873 79.8677545 -6.70458984 77.27075195 C-7.1586935 75.94432609 -7.61649015 74.6191598 -8.07763672 73.29516602 C-8.75692245 71.34192327 -9.42267405 69.3845132 -10.0859375 67.42578125 C-10.4782959 66.28536377 -10.8706543 65.14494629 -11.27490234 63.9699707 C-12.37639208 59.45831327 -11.1490636 57.07953487 -8.9375 53.1875 C-6.95187584 49.25989177 -6.35274559 46.44987407 -7 42 C-7.96541261 40.20937993 -8.99417139 38.59018456 -10.22265625 36.96875 C-12.86996626 30.26400504 -7.72571725 20.95465122 -5.5 14.6875 C-5.08363281 13.49576172 -4.66726563 12.30402344 -4.23828125 11.07617188 C-1.17816964 2.35633929 -1.17816964 2.35633929 0 0 Z " fill="#F8FAF5" transform="translate(563,276)"/>
<path d="M0 0 C2.7109375 2.16015625 2.7109375 2.16015625 5.375 5.0625 C6.33266452 6.07868393 7.29230949 7.09300503 8.25390625 8.10546875 C9.16011719 9.06066406 10.06632812 10.01585937 11 11 C14.52810122 14.2739327 18.05822592 17.38196309 22.08520508 20.0246582 C24.00631744 21.63697836 24.88085053 22.55078836 25.52870178 24.99328613 C25.69401751 27.42905813 25.67491528 29.79848167 25.5859375 32.23828125 C25.57744781 33.11904831 25.56895813 33.99981537 25.56021118 34.90727234 C25.52672156 37.71027875 25.45145454 40.51036885 25.375 43.3125 C25.34489448 45.21675522 25.31751969 47.1210557 25.29296875 49.02539062 C25.2269452 53.6847111 25.12345728 58.34186179 25 63 C21.66518188 62.47004277 19.33434101 61.84323205 16.625 59.8203125 C16.03203125 59.38589844 15.4390625 58.95148438 14.828125 58.50390625 C14.22484375 58.04886719 13.6215625 57.59382813 13 57.125 C11.79295393 56.23003208 10.58464322 55.33676696 9.375 54.4453125 C8.80273682 54.01734375 8.23047363 53.589375 7.64086914 53.1484375 C5.85359485 51.84371864 5.85359485 51.84371864 3.12109375 50.5078125 C1 49 1 49 0.28515625 46.546875 C0.21167969 45.62390625 0.13820313 44.7009375 0.0625 43.75 C-0.7597385 37.99433048 -2.45705551 34.65727871 -7 31 C-11.79658599 28.29646971 -15.52257932 27.49283142 -21 28 C-21.86625 28.350625 -22.7325 28.70125 -23.625 29.0625 C-26.60864512 30.24025465 -27.9321564 29.8402592 -31 29 C-33.21655273 27.84838867 -33.21655273 27.84838867 -35.43359375 26.41796875 C-36.24763672 25.89783203 -37.06167969 25.37769531 -37.90039062 24.84179688 C-38.73763672 24.29587891 -39.57488281 23.74996094 -40.4375 23.1875 C-41.68756836 22.38602539 -41.68756836 22.38602539 -42.96289062 21.56835938 C-44.58057658 20.52869243 -46.19451534 19.48316613 -47.80419922 18.43115234 C-49.17294036 17.53905088 -50.54852548 16.65725813 -51.93408203 15.79150391 C-53.32309327 14.91210935 -54.66811256 13.96372343 -56 13 C-56 12.34 -56 11.68 -56 11 C-46.26418885 8.41112801 -36.51295986 6.26178219 -26.60449219 4.43945312 C-20.57391643 3.32440744 -14.63443042 2.03574547 -8.69140625 0.515625 C-5.57688443 -0.08106133 -3.161063 -0.41734296 0 0 Z " fill="#F6F8F4" transform="translate(358,183)"/>
<path d="M0 0 C0.66 0.33 1.32 0.66 2 1 C2.52653005 3.72740646 2.92546941 6.38346726 3.25390625 9.13671875 C3.35968491 9.96774612 3.46546356 10.7987735 3.57444763 11.65498352 C3.79801686 13.42577961 4.01712173 15.19714401 4.23217773 16.96899414 C4.55579879 19.63235001 4.89277483 22.29372398 5.23242188 24.95507812 C6.33255839 33.70338464 7.27945369 42.41192324 7.76928711 51.21826172 C7.97736793 53.72712192 8.37423453 56.00433583 9 58.4375 C10.62204838 64.80464513 10.67279372 71.46448518 11 78 C3.1728898 71.4071624 -4.16552142 64.3491785 -11.48168945 57.19799805 C-13.12090675 55.6057133 -14.77074484 54.02429101 -16.4309082 52.45385742 C-18.84411695 50.16852608 -21.21927343 47.84896519 -23.58984375 45.51953125 C-24.33346664 44.82954544 -25.07708954 44.13955963 -25.84324646 43.42866516 C-29.79549627 39.46244617 -31.46675762 36.84894637 -31.58935547 31.15161133 C-31.41170642 27.43018717 -31.1439302 26.2099098 -28.98046875 23.0546875 C-28.05878906 22.33539063 -27.13710938 21.61609375 -26.1875 20.875 C-25.18332031 20.06160156 -24.17914063 19.24820312 -23.14453125 18.41015625 C-22.10683594 17.61480469 -21.06914062 16.81945312 -20 16 C-18.12269283 14.44027276 -16.24760966 12.87786395 -14.375 11.3125 C-9.63279191 7.4777936 -4.83698161 3.71432415 0 0 Z " fill="#F8FAF5" transform="translate(440,408)"/>
<path d="M0 0 C3.56641429 0.51201931 5.56587074 1.06523834 8.05078125 3.6953125 C8.58509766 4.24703125 9.11941406 4.79875 9.66992188 5.3671875 C10.21197266 5.94726562 10.75402344 6.52734375 11.3125 7.125 C14.71294405 10.69484649 18.11698479 14.15947611 21.85546875 17.37890625 C26.43683719 21.32671046 30.72322712 25.53943316 35 29.8125 C35.77472656 30.57498047 36.54945313 31.33746094 37.34765625 32.12304688 C38.07855469 32.85201172 38.80945313 33.58097656 39.5625 34.33203125 C40.22378906 34.98921143 40.88507812 35.6463916 41.56640625 36.32348633 C43 38 43 38 43 40 C36.49856467 42.70893139 29.81988067 44.36519459 22.9921875 46.01171875 C18.7250865 47.04650597 14.52540167 48.28109586 10.33203125 49.58203125 C7.53170845 50.08393165 5.70689629 49.86390307 3 49 C0.91265804 47.38129013 0.09018631 46.5267486 -0.36076355 43.89289856 C-0.35410172 43.08237534 -0.34743988 42.27185211 -0.34057617 41.43676758 C-0.34034958 40.51603958 -0.34012299 39.59531158 -0.33988953 38.64668274 C-0.32440567 37.65597275 -0.30892181 36.66526276 -0.29296875 35.64453125 C-0.28872391 34.62775803 -0.28447906 33.6109848 -0.28010559 32.56340027 C-0.26329997 29.31283188 -0.22564382 26.0628813 -0.1875 22.8125 C-0.17245562 20.61003499 -0.15876679 18.40756027 -0.14648438 16.20507812 C-0.11339036 10.80317428 -0.06317223 5.40163128 0 0 Z " fill="#F7F9F5" transform="translate(506,210)"/>
<path d="M0 0 C1.32 0 2.64 0 4 0 C6.67773438 8.03320312 6.67773438 8.03320312 9.35546875 16.06640625 C9.7107666 17.13193726 9.7107666 17.13193726 10.07324219 18.21899414 C10.57057164 19.71147523 11.06730604 21.20415472 11.56347656 22.69702148 C13.00877245 27.04245357 14.4677001 31.38286321 15.94140625 35.71875 C16.26326904 36.67080322 16.58513184 37.62285645 16.91674805 38.60375977 C17.54609226 40.46485486 18.17895887 42.32476327 18.81567383 44.18334961 C19.10079834 45.02905518 19.38592285 45.87476074 19.6796875 46.74609375 C19.93476074 47.49560303 20.18983398 48.2451123 20.45263672 49.01733398 C21 51 21 51 21 54 C10.11928299 53.1117782 -0.41145191 49.54443836 -10.8125 46.375 C-11.50021484 46.16907227 -12.18792969 45.96314453 -12.89648438 45.75097656 C-15.85802429 44.82904411 -17.77367057 44.22632943 -20 42 C-19.66238505 37.6663993 -17.75953445 34.25231232 -15.76171875 30.44921875 C-15.43967972 29.83158157 -15.11764069 29.2139444 -14.7858429 28.57759094 C-13.75894326 26.61108148 -12.72350515 24.64922511 -11.6875 22.6875 C-11.00266129 21.38117056 -10.31841087 20.07453254 -9.63476562 18.76757812 C-8.64465232 16.87489175 -7.65415506 14.98242404 -6.66110229 13.09127808 C-4.38493251 8.7538498 -2.16603243 4.39331514 0 0 Z " fill="#F5F7F2" transform="translate(217,275)"/>
<path d="M0 0 C3.37299583 1.01189875 5.15113907 2.2395806 7.796875 4.5390625 C11.28246882 7.52671434 14.73058843 9.94438777 18.671875 12.2890625 C21.33827899 14.15131291 22.76821774 15.24528508 24.0234375 18.2578125 C24.46988516 22.39064223 23.85667155 24.88487173 21.2734375 28.16796875 C18.64757666 30.60626811 15.90745912 32.75526552 13.046875 34.9140625 C11.8424709 35.86653681 10.64075026 36.82241189 9.44140625 37.78125 C6.51583092 40.11226797 3.56899619 42.41333923 0.60693359 44.69775391 C-0.88087722 45.8577341 -2.34544406 47.04734546 -3.80859375 48.23828125 C-5.953125 49.9140625 -5.953125 49.9140625 -6.953125 49.9140625 C-7.05441327 43.27560433 -7.12454294 36.63734484 -7.17285156 29.99829102 C-7.19298666 27.73910068 -7.22029689 25.47996258 -7.25488281 23.22094727 C-7.30331662 19.97659429 -7.32607476 16.73292933 -7.34375 13.48828125 C-7.37471771 11.96940559 -7.37471771 11.96940559 -7.40631104 10.41984558 C-7.40661316 9.47909683 -7.40691528 8.53834808 -7.40722656 7.5690918 C-7.41610901 6.74080368 -7.42499146 5.91251556 -7.43414307 5.05912781 C-6.953125 2.9140625 -6.953125 2.9140625 -5.10931396 1.11775208 C-2.953125 -0.0859375 -2.953125 -0.0859375 0 0 Z " fill="#F7F9F4" transform="translate(405.953125,371.0859375)"/>
</svg>
