<svg width="24" height="24" viewBox="0 0 24 24" fill="none" xmlns="http://www.w3.org/2000/svg">
  <path d="M12 2C10.3431 2 9 3.34315 9 5C9 6.65685 10.3431 8 12 8C13.6569 8 15 6.65685 15 5C15 3.34315 13.6569 2 12 2Z" fill="currentColor"/>
  <path d="M12 16C10.3431 16 9 17.3431 9 19C9 20.6569 10.3431 22 12 22C13.6569 22 15 20.6569 15 19C15 17.3431 13.6569 16 12 16Z" fill="currentColor"/>
  <path d="M5 9C3.34315 9 2 10.3431 2 12C2 13.6569 3.34315 15 5 15C6.65685 15 8 13.6569 8 12C8 10.3431 6.65685 9 5 9Z" fill="currentColor"/>
  <path d="M19 9C17.3431 9 16 10.3431 16 12C16 13.6569 17.3431 15 19 15C20.6569 15 22 13.6569 22 12C22 10.3431 20.6569 9 19 9Z" fill="currentColor"/>
  <circle cx="12" cy="12" r="2" fill="currentColor" />
</svg>
